<?xml version="1.0" encoding="UTF-8" standalone="no"?>
<!-- Created with Inkscape (http://www.inkscape.org/) -->

<svg
   xmlns:dc="http://purl.org/dc/elements/1.1/"
   xmlns:cc="http://creativecommons.org/ns#"
   xmlns:rdf="http://www.w3.org/1999/02/22-rdf-syntax-ns#"
   xmlns:svg="http://www.w3.org/2000/svg"
   xmlns="http://www.w3.org/2000/svg"
   xmlns:sodipodi="http://sodipodi.sourceforge.net/DTD/sodipodi-0.dtd"
   xmlns:inkscape="http://www.inkscape.org/namespaces/inkscape"
   width="256"
   height="256"
   id="svg2"
   version="1.1"
   inkscape:version="0.48.4 r9939"
   sodipodi:docname="Neues Dokument 1">
  <defs
     id="defs4">
    <inkscape:perspective
       sodipodi:type="inkscape:persp3d"
       inkscape:vp_x="-216.06765 : -61.568861 : 1"
       inkscape:vp_y="0 : 3196.9249 : 0"
       inkscape:vp_z="578.01482 : -61.568861 : 1"
       inkscape:persp3d-origin="180.97359 : -197.971 : 1"
       id="perspective3031" />
  </defs>
  <sodipodi:namedview
     id="base"
     pagecolor="#ffffff"
     bordercolor="#666666"
     borderopacity="1.0"
     inkscape:pageopacity="0.0"
     inkscape:pageshadow="2"
     inkscape:zoom="1.979899"
     inkscape:cx="10.642059"
     inkscape:cy="121.97016"
     inkscape:document-units="px"
     inkscape:current-layer="layer1"
     showgrid="false"
     inkscape:window-width="1847"
     inkscape:window-height="1053"
     inkscape:window-x="73"
     inkscape:window-y="27"
     inkscape:window-maximized="1" />
  <metadata
     id="metadata7">
    <rdf:RDF>
      <cc:Work
         rdf:about="">
        <dc:format>image/svg+xml</dc:format>
        <dc:type
           rdf:resource="http://purl.org/dc/dcmitype/StillImage" />
        <dc:title></dc:title>
      </cc:Work>
    </rdf:RDF>
  </metadata>
  <g
     inkscape:label="Ebene 1"
     inkscape:groupmode="layer"
     id="layer1"
     transform="translate(0,-796.36218)">
    <rect
       style="fill:#000080;fill-opacity:1;stroke:none"
       id="rect2985"
       width="289.40869"
       height="281.32748"
       x="-16.667517"
       y="781.13623" />
    <rect
       style="fill:#ffffff;fill-opacity:1;stroke:none"
       id="rect3075"
       width="160"
       height="160"
       x="50"
       y="842.36218"
       ry="10" />
    <path
       sodipodi:type="arc"
       style="fill:#000000;fill-opacity:1;stroke:none"
       id="path3845"
       sodipodi:cx="100.51018"
       sodipodi:cy="97.911125"
       sodipodi:rx="19.192898"
       sodipodi:ry="13.637059"
       d="m 119.70308,97.911125 a 19.192898,13.637059 0 1 1 -38.3858,0 19.192898,13.637059 0 1 1 38.3858,0 z"
       transform="matrix(0.7815391,0,0,1.0999439,20.792556,773.09434)" />
    <path
       sodipodi:type="arc"
       style="fill:#000000;fill-opacity:1;stroke:none"
       id="path3845-9"
       sodipodi:cx="100.51018"
       sodipodi:cy="97.911125"
       sodipodi:rx="19.192898"
       sodipodi:ry="13.637059"
       d="m 119.70308,97.911125 a 19.192898,13.637059 0 1 1 -38.3858,0 19.192898,13.637059 0 1 1 38.3858,0 z"
       transform="matrix(0.7815391,0,0,1.0999439,81.556546,772.43443)" />
    <path
       sodipodi:type="arc"
       style="fill:#000000;fill-opacity:1;stroke:none"
       id="path3845-92"
       sodipodi:cx="100.51018"
       sodipodi:cy="97.911125"
       sodipodi:rx="19.192898"
       sodipodi:ry="13.637059"
       d="m 119.70308,97.911125 a 19.192898,13.637059 0 1 1 -38.3858,0 19.192898,13.637059 0 1 1 38.3858,0 z"
       transform="matrix(0.7815391,0,0,1.0999439,19.93724,815.87098)" />
    <path
       sodipodi:type="arc"
       style="fill:#000000;fill-opacity:1;stroke:none"
       id="path3845-6"
       sodipodi:cx="100.51018"
       sodipodi:cy="97.911125"
       sodipodi:rx="19.192898"
       sodipodi:ry="13.637059"
       d="m 119.70308,97.911125 a 19.192898,13.637059 0 1 1 -38.3858,0 19.192898,13.637059 0 1 1 38.3858,0 z"
       transform="matrix(0.7815391,0,0,1.0999439,81.051468,816.88114)" />
    <path
       sodipodi:type="arc"
       style="fill:#000000;fill-opacity:1;stroke:none"
       id="path3845-1"
       sodipodi:cx="100.51018"
       sodipodi:cy="97.911125"
       sodipodi:rx="19.192898"
       sodipodi:ry="13.637059"
       d="m 119.70308,97.911125 a 19.192898,13.637059 0 1 1 -38.3858,0 19.192898,13.637059 0 1 1 38.3858,0 z"
       transform="matrix(0.7815391,0,0,1.0999439,21.957545,862.338)" />
    <path
       sodipodi:type="arc"
       style="fill:#000000;fill-opacity:1;stroke:none"
       id="path3845-2"
       sodipodi:cx="100.51018"
       sodipodi:cy="97.911125"
       sodipodi:rx="19.192898"
       sodipodi:ry="13.637059"
       d="m 119.70308,97.911125 a 19.192898,13.637059 0 1 1 -38.3858,0 19.192898,13.637059 0 1 1 38.3858,0 z"
       transform="matrix(0.7815391,0,0,1.0999439,81.051469,862.338)" />
  </g>
</svg>
